<svg height="512" viewBox="0 0 58 46" width="512" xmlns="http://www.w3.org/2000/svg"><g id="Page-1" fill="none" fill-rule="evenodd"><g id="021---Laundry-Basket" fill-rule="nonzero"><path id="Shape" d="m4.12 21c.012.1 1.622 13.53 1.61 13.43.73471392 6.0275553 5.8478375 10.561592 11.92 10.57h22.7c6.0721625-.008408 11.1852861-4.5424447 11.92-10.57l1.61-13.43" fill="#2980ba"/><path id="Shape" d="m52.887 20.381-.613 5.119h-6.656l.382-4.923-2-.154-.388 5.077h-7.756l.144-4.971-2-.058-.145 5.029h-9.71l-.145-5.029-2 .058.144 4.971h-7.756l-.388-5.077-2 .154.379 4.923h-6.652c-.326-2.718-.608-5.067-.614-5.117-.03644634-.3592799-.26376918-.6709993-.59471662-.8155129-.33094745-.1445136-.71410092-.0993686-1.00239704.1181072-.28829613.2174758-.43694297.5734938-.38888634.9314057.006.051.408 3.4.809 6.744.4 3.318.794 6.626.8 6.69.79636424 6.5296167 6.3360046 11.4408249 12.914 11.449h22.7c6.577614-.0086797 12.1166825-4.9197611 12.913-11.449l1.61-13.432zm-.853 7.119c-.174 1.451-.345 2.872-.48 4h-6.4l.308-4zm-8.577 0-.308 4h-7.467l.116-4zm-1.2 10h-6.9c.123-1.134.218-2.308.254-3.541l.014-.459h7.375l-.027.352c-.0971228 1.2394676-.3370451 2.4635748-.715 3.648zm-17.6 0c-.131-1.145-.229-2.34-.266-3.6l-.012-.4h9.248l-.012.4c-.037 1.259-.135 2.454-.266 3.6zm-8.912 0c-.3761589-1.183968-.6144021-2.4073973-.71-3.646l-.027-.354h7.37l.014.459c.036 1.234.131 2.407.254 3.541zm18.055-10-.115 4h-9.367l-.115-4zm-11.6 0 .116 4h-7.465l-.309-4zm-9.357 4h-6.4l-.479-4h6.569zm-6.143 2.312c0-.106-.016-.207-.027-.312h6.327l.039.508c.092058 1.1810159.2976743 2.3504171.614 3.492h-5.783c-.59823204-1.1522071-.98662157-2.4016904-1.147-3.69zm2.491 5.688h5.153c.60571 1.4863032 1.5096457 2.8326774 2.656 3.956-3.0382017-.1815323-5.8653948-1.6137741-7.809-3.956zm7.364 0h6.353c.1909209 1.3746531.5579346 2.7190253 1.092 4h-2.3c-1.982 0-3.873-1.5-5.145-4zm9.777 4c-.25-.186-.9-1.226-1.4-4h8.14c-.5 2.774-1.152 3.814-1.4 4zm7.668 0c.5339472-1.2810864.9012808-2.6253998 1.093-4h6.354c-1.273 2.494-3.164 4-5.147 4zm7-.044c1.1463543-1.1233226 2.05029-2.4696968 2.656-3.956h5.153c-1.9436052 2.3422259-4.7707983 3.7744677-7.809 3.956zm9.13-5.956h-5.782c.3164156-1.1422422.5220324-2.3123156.614-3.494l.038-.506h6.313l-.037.31c-.1600653 1.2882465-.5481153 2.5377267-1.146 3.69z" fill="#2fa8cc"/><path id="Shape" d="m48.16 9.39-4.74-1.05c-2.1426507-1.15292696-4.6613093-1.38747253-6.98-.65l-3.59-3.7 2.86-1.82c1.8823205-1.19473628 4.1985997-1.49010968 6.3205123-.80599577s3.8294759 2.27679171 4.6594877 4.34599577z" fill="#f3d55b"/><path id="Shape" d="m36.44 6.19c-.04.01-.09.03-.13.04l-11.32 5.27-6.87-2.5c-.2-.07-.41-.14-.62-.2-2.43-.69-5.05-.83-7.22.53l-1.01-.37 2.4-3.84c.8728202-1.38488768 2.1072087-2.50517309 3.57-3.24 1.2347146-.62078076 2.5980155-.94276639 3.98-.94 1.2471227.00176691 2.4801238.26403511 3.62.77l.12.05 2.23.99h.01c2.09155-.8885503 4.4838324-.70968806 6.42.48l1.23.76z" fill="#7d6599"/><path id="Shape" d="m51 10.92.5 4.58h-45l.5-5.12 2.27-1.42 1.01-.63c2.1520933-1.35061011 4.7760889-1.72494743 7.22-1.03.21.06.42.13.62.2l3.87 1.41 3 1.09 3-1 8.32-2.77c.04-.01.09-.03.13-.04 2.3186907-.73747253 4.8373493-.50292696 6.98.65l4.74 2.55z" fill="#e64c3c"/><path id="Shape" d="m24.99 10-5.52 1.85c-.1025312.0368069-.2111278.0537752-.32.05-.479852-.0143718-.8817846-.3677068-.9575354-.8417598-.0757507-.4740531.1960571-.9350476.6475354-1.0982402l3.15-1.05z" fill="#c03a2b"/><path id="Shape" d="m25.19 2.75-4.21 2.53c-.1554239.08904796-.3308956.13721668-.51.14-.3522768-.00301952-.6777941-.18848866-.86-.49-.2833209-.47236941-.1313036-1.08490968.34-1.37l3.01-1.8z" fill="#5d4c72"/><rect id="Rectangle-path" fill="#67b9cc" height="6" rx="2" width="58" y="15"/><g fill="#2fa8cc"><path id="Shape" d="m7 9v6h-4v-6c.0032948-1.10320187.89679813-1.9967052 2-2 1.10116878.00816722 1.99183278.89883122 2 2z"/><path id="Shape" d="m55 9v6h-4v-6c.0032948-1.10320187.8967981-1.9967052 2-2 1.1011688.00816722 1.9918328.89883122 2 2z"/></g></g></g></svg>