<svg id="Capa_1" enable-background="new 0 0 511.986 511.986" height="512" viewBox="0 0 511.986 511.986" width="512" xmlns="http://www.w3.org/2000/svg"><g><g><path d="m70.532 450.711h-35.484v43.454c0 4.128 3.346 7.474 7.474 7.474h11.791c3.569 0 6.639-2.523 7.332-6.023z" fill="#365e7d"/><path d="m255.54 450.711h35.484v43.454c0 4.128-3.346 7.474-7.474 7.474h-11.791c-3.569 0-6.639-2.523-7.332-6.023z" fill="#365e7d"/><path d="m163.752 150.147c0 1.379-.047 2.769-.14 4.173-1.221 18.504-10.359 38.859-23.941 52.695-5.924 6.039-12.697 10.831-20.022 13.686-4.828 1.888-9.897 2.926-15.126 2.926s-10.298-1.039-15.126-2.926c-4.159-1.619-8.138-3.868-11.888-6.608-19.127-14.008-32.215-40.965-32.215-63.946 0-5.863.849-11.207 2.439-16.032 1.583-4.825 3.908-9.123 6.848-12.902 11.879-17.708 15.919-30.423 15.711-39.532-.036-1.812-.244-3.478-.591-5.015-.555-2.461-1.472-4.585-2.633-6.419-.813-1.3-1.755-2.45-2.772-3.467h80.454c-2.457 2.457-4.456 5.681-5.405 9.886-.415 1.837-.63 3.865-.598 6.096.129 9.03 4.305 21.433 15.717 38.451 4.986 6.408 8.195 14.316 9.055 23.722.154 1.691.233 3.429.233 5.212z" fill="#ececec"/><path d="m104.527 223.631c-5.231 0-10.3-1.038-15.128-2.933-4.152-1.613-8.133-3.86-11.883-6.602-19.129-14.009-32.222-40.97-32.222-63.949 0-5.866.857-11.207 2.439-16.035 1.582-4.818 3.911-9.121 6.853-12.901 11.874-17.708 15.916-30.417 15.714-39.528-.04-1.814-.252-3.477-.595-5.019-.554-2.459-1.472-4.576-2.631-6.41-.816-1.3-1.754-2.449-2.772-3.467h23.816c.413 1.018.796 2.167 1.129 3.467.474 1.834.847 3.951 1.078 6.41.141 1.542.222 3.205.242 5.019.081 9.111-1.562 21.82-6.41 39.529-1.199 3.78-2.147 8.083-2.792 12.901-.655 4.828-.998 10.169-.998 16.035 0 22.979 5.342 49.94 13.143 63.949 1.522 2.741 3.155 4.989 4.848 6.602 1.966 1.894 4.033 2.932 6.169 2.932z" fill="#dadada"/><path d="m361.175 501.64v-406.248c0-8.349 6.769-15.118 15.118-15.118s15.118 6.769 15.118 15.118v406.248z" fill="#407093"/><path d="m383.852 82.3c-4.515 2.621-7.559 7.499-7.559 13.092v406.252h-15.118v-406.252c0-8.345 6.773-15.118 15.118-15.118 2.752 0 5.332.736 7.559 2.026z" fill="#365e7d"/><path d="m310.694 219.867c-98.362-9.418-196.724-14.143-295.086-4.726-10.82 85.616-10.82 171.232 0 256.848 98.362 9.418 196.724 9.418 295.086 0 10.82-85.616 10.82-166.507 0-252.122z" fill="#845c47"/><path d="m163.151 448.816c-39.891 0-80.249-1.61-120.3-4.792-6.78-66.773-6.78-134.144 0-200.918 40.051-3.183 80.409-4.792 120.3-4.792s80.249 1.61 120.3 4.792c6.78 66.773 6.78 134.144 0 200.918-40.052 3.182-80.409 4.792-120.3 4.792z" fill="#986b54"/><path d="m463.026 21.716c11.109 22.082 34.42 73.305 41.328 126.536 1.098 8.459-4.386 16.392-12.684 18.369-21.535 5.132-65.357 13.813-115.377 13.813s-93.841-8.681-115.377-13.813c-8.298-1.977-13.781-9.91-12.684-18.369 6.908-53.231 30.219-104.454 41.328-126.536 3.508-6.973 10.645-11.367 18.451-11.367h136.564c7.806.001 14.942 4.394 18.451 11.367z" fill="#ffd064"/><path d="m337.948 10.358c-4.384 0-8.385 4.384-10.361 11.359-6.239 22.082-22.929 93.409-26.799 146.645-.151 2.086-.081 4.132.181 6.067-16.761-2.59-30.569-5.543-40.053-7.801-8.305-1.975-13.788-9.917-12.689-18.373 6.914-53.225 30.216-104.455 41.333-126.538 3.507-6.975 10.643-11.359 18.444-11.359h29.944z" fill="#ffc250"/><path d="m406.996 470.851h-61.406c-11.26 0-20.387 9.128-20.387 20.387v10.401h102.181v-10.401c0-11.259-9.128-20.387-20.388-20.387z" fill="#ffd064"/><path d="m374.306 470.849c-11.258 0-20.389 9.131-20.389 20.389v10.401h-28.714v-10.401c0-11.258 9.131-20.389 20.389-20.389z" fill="#ffc250"/><g fill="#ececec"><circle cx="163.151" cy="290.959" r="17.555"/><circle cx="163.151" cy="396.171" r="17.555"/></g></g><g><path d="m318.125 214.196c-.44-3.48-3.234-6.191-6.727-6.525-52.037-4.979-104.462-7.296-156.867-7.007 8.897-12.896 14.821-28.39 16.312-43.234 3.288-.795 5.734-3.749 5.734-7.282 0-3.538-2.453-6.496-5.75-7.286-1.128-9.872-4.579-18.626-10.281-26.037-11.668-17.455-14.226-28.214-14.312-34.166-.021-1.541.122-3.007.421-4.347.557-2.471 1.662-4.503 3.378-6.211 2.151-2.143 2.799-5.371 1.64-8.177s-3.896-4.637-6.932-4.637h-80.458c-3.034 0-5.769 1.828-6.929 4.63s-.519 6.029 1.626 8.174c.678.678 1.251 1.39 1.75 2.194.771 1.21 1.311 2.528 1.644 4.004.253 1.143.387 2.294.408 3.568.139 5.995-2.232 16.922-14.293 34.968-3.45 4.483-6.104 9.51-7.887 14.938-1.155 3.503-1.956 7.205-2.401 11.064-3.366.738-5.888 3.734-5.888 7.322 0 3.577 2.506 6.563 5.856 7.313 1.647 16.272 8.594 33.258 18.916 46.778-14.09.96-28.163 2.089-42.205 3.432-3.492.334-6.287 3.045-6.727 6.525-1.862 14.735-3.411 29.543-4.604 44.014-.34 4.128 2.73 7.75 6.858 8.091 4.137.335 7.751-2.73 8.091-6.858 1.014-12.305 2.29-24.858 3.8-37.401 93.491-8.572 188.199-8.572 281.68 0 9.709 80.673 9.709 162.376 0 243.041-93.481 8.582-188.188 8.582-281.68 0-7.04-58.537-9-117.831-5.827-176.35.225-4.136-2.947-7.671-7.083-7.895-4.149-.234-7.671 2.947-7.896 7.083-3.33 61.401-1.089 123.646 6.658 185.006.439 3.481 3.233 6.192 6.726 6.526 4.215.404 8.436.766 12.656 1.135v13.574c0 8.259 6.719 14.978 14.979 14.978h11.792c7.142 0 13.319-5.084 14.685-12.071l2.62-13.242c30.458 1.79 60.995 2.693 91.533 2.693 30.46 0 60.918-.899 91.296-2.68l2.62 13.233c1.386 6.993 7.566 12.068 14.694 12.068h11.792c8.254 0 14.969-6.719 14.969-14.978v-13.553c4.297-.375 8.594-.745 12.886-1.156 3.492-.334 6.286-3.045 6.726-6.525 10.849-85.839 10.849-172.888.001-258.734zm-257.631-88.378c.109-.14.213-.284.312-.431 11.7-17.451 17.251-31.804 16.972-43.83-.037-2.216-.293-4.409-.767-6.544-.055-.244-.113-.486-.174-.727h55.358c-.062.244-.12.49-.176.738-.558 2.491-.822 5.128-.785 7.845.171 11.815 5.729 25.723 16.993 42.519.098.147.202.29.311.429 3.712 4.77 6.098 10.415 7.123 16.831h-102.297c.344-2.156.836-4.228 1.485-6.196 1.275-3.883 3.175-7.461 5.645-10.634zm-7.21 31.829h102.442c-1.991 15.367-9.816 31.87-20.596 43.244-19.711.353-39.41 1.075-59.078 2.173-11.956-11.505-20.652-29.028-22.768-45.417zm1.021 336.493-11.771.022v-12.339c4.661.362 9.323.709 13.988 1.029zm229.239 0-11.771.017-2.235-11.29c4.665-.319 9.327-.665 13.988-1.027z"/><path d="m42.247 451.5c40.216 3.195 80.891 4.816 120.894 4.816s80.678-1.621 120.894-4.816c3.611-.287 6.501-3.115 6.867-6.719 6.82-67.163 6.82-135.271 0-202.433-.366-3.604-3.256-6.432-6.867-6.719-40.216-3.195-80.891-4.816-120.894-4.816s-80.678 1.621-120.894 4.816c-3.611.287-6.501 3.115-6.867 6.719-6.819 67.163-6.819 135.271 0 202.433.366 3.604 3.256 6.432 6.867 6.719zm120.894-10.184c-37.537 0-75.67-1.441-113.451-4.285-2.714-28.544-4.164-57.249-4.381-85.966h235.665c-.217 28.717-1.667 57.422-4.382 85.966-37.781 2.844-75.914 4.285-113.451 4.285zm0-195.503c37.537 0 75.67 1.441 113.451 4.285 2.714 28.544 4.164 57.249 4.382 85.966h-235.665c.217-28.717 1.667-57.422 4.381-85.966 37.782-2.844 75.915-4.285 113.451-4.285z"/><path d="m511.781 147.291c-5.058-38.984-18.77-76.759-29.381-101.583-1.628-3.809-6.038-5.576-9.844-3.948-3.809 1.628-5.577 6.035-3.949 9.844 10.24 23.954 23.461 60.334 28.299 97.619.607 4.667-2.396 9.012-6.98 10.107-11.333 2.699-28.817 6.37-50.088 9.218-2.942-64.845-14.5-127.721-19.101-150.702h23.827c4.926 0 9.396 2.712 11.665 7.079 1.91 3.675 6.437 5.107 10.114 3.196 3.675-1.91 5.106-6.438 3.196-10.114-4.86-9.352-14.43-15.161-24.975-15.161h-136.56c-10.698 0-20.335 5.938-25.15 15.499-12.75 25.339-35.168 75.784-42.067 128.944-1.6 12.302 6.301 23.751 18.379 26.633 18.638 4.439 53.435 11.426 94.504 13.447v275.982h-8.09c-15.377 0-27.888 12.51-27.888 27.887v10.401c0 4.142 3.358 7.5 7.5 7.5h102.182c4.142 0 7.5-3.358 7.5-7.5v-10.401c0-15.377-12.51-27.887-27.888-27.887h-8.08v-275.982c22.334-1.1 42.804-3.667 59.837-6.495v65.537c0 4.142 3.358 7.5 7.5 7.5s7.5-3.358 7.5-7.5v-68.245c7.711-1.506 14.348-2.979 19.663-4.245 12.075-2.883 19.974-14.333 18.375-26.63zm-164.647-129.444h58.299c4.041 19.767 16.525 85.209 19.471 152.48-15.026 1.569-31.453 2.61-48.621 2.61-17.164 0-33.588-1.041-48.611-2.609 2.936-67.256 15.416-132.688 19.462-152.481zm-91.473 131.375c6.861-52.861 30.672-104.42 40.59-124.132 2.25-4.468 6.753-7.243 11.752-7.243h23.827c-4.6 22.979-16.158 85.859-19.092 150.703-21.275-2.849-38.761-6.52-50.095-9.219-4.587-1.094-7.588-5.439-6.982-10.109zm164.213 342.016v2.901h-87.182v-2.901c0-7.106 5.781-12.887 12.888-12.887h61.406c7.107 0 12.888 5.781 12.888 12.887zm-35.967-27.887h-15.237v-275.486c2.522.043 5.057.071 7.613.071 2.559 0 5.098-.028 7.623-.071v275.486z"/><path d="m163.141 316.014c13.815 0 25.055-11.24 25.055-25.056 0-13.815-11.24-25.055-25.055-25.055s-25.055 11.24-25.055 25.055c0 13.816 11.24 25.056 25.055 25.056zm0-35.111c5.544 0 10.055 4.511 10.055 10.055 0 5.545-4.511 10.056-10.055 10.056s-10.055-4.511-10.055-10.056c0-5.544 4.511-10.055 10.055-10.055z"/><path d="m163.141 371.116c-13.815 0-25.055 11.24-25.055 25.055s11.24 25.055 25.055 25.055 25.055-11.24 25.055-25.055-11.239-25.055-25.055-25.055zm0 35.11c-5.544 0-10.055-4.511-10.055-10.055s4.511-10.055 10.055-10.055 10.055 4.511 10.055 10.055-4.51 10.055-10.055 10.055z"/></g></g></svg>