<svg id="Layer_3" enable-background="new 0 0 64 64" height="512" viewBox="0 0 64 64" width="512" xmlns="http://www.w3.org/2000/svg"><g><path d="m60 44-1.919-3.838 1.647-1.647-4.243-4.243-1.647 1.647-3.838-1.919v-2h-6v2l-3.838 1.919-1.647-1.647-4.243 4.243 1.647 1.647-1.919 3.838h-2v6h2l1.919 3.838-1.647 1.647 4.243 4.243 1.647-1.647 3.838 1.919v2h6v-2l3.838-1.919 1.647 1.647 4.243-4.243-1.647-1.647 1.919-3.838h2v-6zm-13 12c-4.971 0-9-4.029-9-9s4.029-9 9-9 9 4.029 9 9-4.029 9-9 9z" fill="#606060"/><path d="m40 23v-4h-3l-.435-2.211 2.776-1.137-1.516-3.702-2.776 1.137-1.321-1.987 2.121-2.121-2.828-2.828-2.121 2.121-1.871-1.256 1.159-2.767-3.689-1.546-1.16 2.767-2.339-.47v-3h-4v3l-2.211.435-1.137-2.776-3.702 1.516 1.137 2.776-1.987 1.322-2.121-2.122-2.828 2.828 2.121 2.121-1.256 1.871-2.767-1.159-1.546 3.689 2.767 1.159-.47 2.34h-3v4h3l.435 2.211-2.776 1.137 1.516 3.702 2.776-1.137 1.322 1.987-2.121 2.121 2.828 2.828 2.121-2.121 1.871 1.256-1.159 2.767 3.689 1.546 1.159-2.767 2.339.47v3h4v-3l2.211-.435 1.137 2.776 3.702-1.516-1.137-2.776 1.987-1.322 2.121 2.121 2.828-2.828-2.121-2.121 1.256-1.871 2.767 1.159 1.546-3.689-2.767-1.159.47-2.339zm-19 10c-6.627 0-12-5.373-12-12s5.373-12 12-12 12 5.373 12 12-5.373 12-12 12z" fill="#8c8787"/><path d="m26 56v-4h-2.349c-.07-.199-.151-.393-.241-.582l1.661-1.661-2.828-2.828-1.661 1.661c-.189-.09-.382-.171-.581-.241v-2.349h-4v2.349c-.199.07-.393.151-.581.241l-1.661-1.661-2.828 2.828 1.661 1.661c-.09.189-.171.382-.241.582h-2.351v4h2.349c.07.199.151.393.241.582l-1.661 1.661 2.828 2.828 1.661-1.661c.189.09.383.171.582.241v2.349h4v-2.349c.199-.07.393-.151.582-.241l1.661 1.661 2.828-2.828-1.661-1.661c.09-.189.171-.383.241-.582zm-8 1c-1.657 0-3-1.343-3-3s1.343-3 3-3 3 1.343 3 3-1.343 3-3 3z" fill="#cbc3b6"/><g><path d="m62 42.999h-1.382l-1.32-2.641 1.137-1.137c.188-.188.293-.442.293-.707 0-.266-.105-.52-.293-.708l-4.243-4.243c-.374-.374-1.038-.375-1.415.001l-1.137 1.137-2.64-1.32v-1.381c0-.553-.447-1-1-1h-6c-.553 0-1 .447-1 1v1.381l-2.641 1.32-1.137-1.137c-.188-.188-.442-.293-.707-.294-.266 0-.52.105-.708.293l-4.243 4.243c-.188.188-.293.442-.293.708 0 .265.105.52.293.707l1.137 1.137-1.32 2.641h-1.381c-.553 0-1 .447-1 1v5.999c0 .553.447 1 1 1h1.382l1.32 2.642-1.137 1.137c-.188.188-.293.442-.293.707 0 .266.105.52.293.708l4.243 4.243c.376.375 1.041.378 1.415-.001l1.137-1.138 2.64 1.32v1.382c0 .553.447 1 1 1h6c.553 0 1-.447 1-1v-1.382l2.641-1.319 1.137 1.137c.188.188.442.293.707.294.266 0 .52-.105.708-.293l4.243-4.243c.188-.188.293-.442.293-.708 0-.265-.105-.52-.293-.707l-1.137-1.137 1.32-2.642h1.381c.553 0 1-.447 1-1v-5.999c0-.553-.448-1-1-1zm-1 5.999h-1c-.378 0-.725.215-.894.554l-1.919 3.839c-.193.385-.117.85.188 1.154l.939.939-2.828 2.828-.94-.939c-.304-.305-.769-.379-1.154-.188l-3.838 1.919c-.34.169-.554.516-.554.894v1h-4v-1c0-.378-.214-.725-.553-.894l-3.838-1.919c-.383-.191-.85-.117-1.154.188l-.94.939-2.828-2.828.939-.939c.305-.305.38-.77.188-1.154l-1.919-3.839c-.169-.339-.516-.554-.894-.554h-1v-3.999h1c.378 0 .725-.215.894-.554l1.919-3.838c.193-.385.117-.85-.188-1.154l-.939-.939 2.828-2.828.94.939c.305.306.772.382 1.155.188l3.838-1.92c.338-.169.552-.516.552-.894v-1h4v1c0 .378.214.725.553.894l3.838 1.92c.386.194.851.118 1.155-.188l.94-.939 2.828 2.828-.939.939c-.305.305-.38.77-.188 1.155l1.919 3.838c.169.338.516.553.894.553h1z"/><path d="m47 36.999c-5.514 0-10 4.485-10 10 0 5.514 4.485 9.999 10 9.999 5.514 0 10-4.485 10-9.999-.001-5.515-4.487-10-10-10zm0 17.999c-4.411 0-8-3.588-8-7.999 0-4.412 3.588-8 8-8s8 3.588 8 8c-.001 4.411-3.589 7.999-8 7.999z"/><path d="m33.999 21c0-7.168-5.832-13-13-13s-12.999 5.831-12.999 13c0 7.168 5.832 13 13 13 7.167-.001 12.999-5.833 12.999-13zm-12.999 10.999c-6.065 0-11-4.935-11-11s4.935-11 11-11 11 4.935 11 11c-.001 6.065-4.936 11-11 11z"/><path d="m30.975 37.446-.827-2.019.623-.415 1.542 1.543c.392.392 1.025.391 1.415 0l2.829-2.828c.188-.188.293-.442.293-.708 0-.265-.105-.519-.293-.707l-1.54-1.54.339-.505 2.009.841c.513.218 1.096-.025 1.309-.536l1.546-3.689c.214-.509-.026-1.095-.536-1.309l-2.012-.843.146-.731h2.182c.265 0 .52-.105.707-.293.188-.188.293-.442.293-.707l-.001-4c0-.552-.448-1-1-1h-2.177l-.117-.597 2.015-.825c.511-.209.756-.793.547-1.304l-1.515-3.702c-.101-.246-.294-.441-.539-.543-.244-.102-.519-.104-.765-.003l-2.019.827-.415-.623 1.542-1.542c.188-.188.293-.442.293-.707 0-.266-.105-.52-.293-.708l-2.829-2.829c-.374-.374-1.039-.375-1.415 0l-1.54 1.54-.505-.339.841-2.009c.213-.509-.026-1.095-.536-1.309l-3.689-1.546c-.507-.212-1.096.026-1.309.536l-.843 2.012-.734-.147v-2.182c0-.553-.447-1-1-1h-4c-.553 0-1 .447-1 1v2.177l-.597.118-.822-2.015c-.21-.511-.791-.754-1.304-.547l-3.702 1.515c-.246.101-.441.294-.543.539s-.104.52-.003.765l.827 2.019-.623.415-1.544-1.543c-.187-.188-.442-.293-.707-.293-.265 0-.52.105-.707.292l-2.829 2.829c-.188.188-.293.442-.293.708 0 .265.105.52.293.707l1.54 1.54-.339.505-2.009-.841c-.506-.212-1.096.026-1.309.536l-1.546 3.689c-.214.509.026 1.095.536 1.309l2.012.843-.147.733h-2.181c-.553 0-1 .447-1 1v4c0 .552.447 1 1 1h2.177l.118.597-2.015.824c-.511.209-.756.793-.547 1.304l1.515 3.702c.101.246.294.441.539.543.244.103.521.105.765.003l2.019-.827.415.623-1.542 1.542c-.189.189-.294.444-.294.709 0 .266.105.521.292.708l2.829 2.828c.391.391 1.024.392 1.415 0l1.54-1.54.505.339-.841 2.009c-.213.509.026 1.095.536 1.309l3.689 1.546c.513.215 1.095-.026 1.309-.536l.843-2.011.733.145v2.181c0 .553.447 1 1 1h4c.553 0 1-.447 1-1v-2.177l.598-.117.825 2.015c.101.246.294.441.539.544.244.103.521.104.765.003l3.702-1.516c.246-.101.441-.294.543-.539.102-.244.103-.52.003-.765zm-4.081.59-.757-1.851c-.181-.442-.644-.69-1.118-.603l-2.211.435c-.469.092-.808.503-.808.98v2h-2v-2c0-.476-.336-.886-.803-.979l-2.339-.47c-.468-.093-.935.155-1.119.594l-.773 1.844-1.844-.772.772-1.845c.185-.44.032-.95-.365-1.217l-1.871-1.255c-.396-.265-.926-.215-1.265.123l-1.414 1.414-1.414-1.413 1.414-1.414c.337-.337.39-.865.126-1.261l-1.322-1.987c-.264-.396-.769-.549-1.211-.372l-1.852.758-.757-1.851 1.85-.757c.442-.181.695-.65.603-1.119l-.436-2.211c-.092-.469-.503-.807-.98-.807h-2v-2h2c.476 0 .886-.336.98-.803l.471-2.339c.094-.467-.154-.936-.594-1.12l-1.845-.773.773-1.844 1.845.772c.443.187.951.032 1.217-.365l1.256-1.871c.266-.397.215-.927-.124-1.265l-1.415-1.413 1.414-1.414 1.414 1.414c.337.337.865.391 1.261.126l1.987-1.322c.396-.264.552-.771.372-1.211l-.758-1.852 1.851-.757.757 1.85c.181.442.651.698 1.119.603l2.211-.435c.469-.093.808-.504.808-.981v-2h2v2c0 .476.336.886.803.98l2.339.471c.467.097.936-.155 1.119-.594l.773-1.845 1.844.773-.772 1.845c-.185.441-.032.951.365 1.217l1.871 1.256c.397.267.926.215 1.265-.124l1.414-1.414 1.414 1.414-1.414 1.414c-.337.337-.39.865-.126 1.261l1.322 1.987c.265.397.775.553 1.211.372l1.851-.758.757 1.851-1.85.757c-.442.181-.695.649-.603 1.118l.435 2.211c.092.469.503.808.981.808h2v2h-2c-.476 0-.886.336-.98.803l-.47 2.339c-.094.467.154.935.594 1.119l1.845.773-.773 1.844-1.845-.772c-.438-.183-.95-.032-1.217.365l-1.256 1.871c-.266.397-.215.927.124 1.265l1.414 1.414-1.414 1.413-1.414-1.414c-.337-.335-.864-.387-1.261-.125l-1.987 1.321c-.396.264-.552.771-.372 1.211l.758 1.852z"/><path d="m26 50.999h-.757l.535-.535c.188-.188.293-.442.292-.708 0-.265-.105-.52-.292-.707l-2.829-2.828c-.39-.39-1.023-.39-1.415 0l-.534.535v-.757c0-.553-.447-1-1-1h-4c-.553 0-1 .447-1 1v.758l-.536-.536c-.389-.39-1.022-.39-1.415 0l-2.829 2.828c-.188.188-.292.442-.293.707 0 .266.105.521.293.708l.535.535h-.755c-.553 0-1 .447-1 1v3.999c0 .553.447 1 1 1h.757l-.536.536c-.188.188-.293.442-.293.708 0 .265.105.52.293.707l2.829 2.828c.391.391 1.024.392 1.415 0l.535-.536v.757c0 .553.447 1 1 1h4c.553 0 1-.447 1-1v-.757l.535.535c.188.188.442.293.707.294.266 0 .52-.105.708-.293l2.829-2.828c.188-.188.292-.442.292-.707 0-.266-.105-.521-.292-.708l-.536-.536h.757c.553 0 1-.447 1-1v-3.999c0-.553-.448-1-1-1zm-1 3.999h-1.349c-.424 0-.802.268-.943.668-.058.165-.125.326-.2.482-.184.383-.105.839.194 1.14l.954.953-1.414 1.414-.954-.953c-.3-.301-.756-.377-1.141-.194-.156.075-.317.141-.482.199-.398.142-.665.52-.665.943v1.348h-2v-1.348c0-.425-.268-.803-.667-.943-.165-.059-.325-.124-.48-.199-.383-.183-.841-.106-1.142.193l-.954.954-1.414-1.414.954-.953c.3-.301.378-.757.194-1.14-.075-.156-.142-.317-.2-.482-.141-.4-.519-.668-.943-.668h-1.348v-1.999h1.348c.424 0 .801-.268.943-.666.058-.165.125-.326.2-.483.184-.383.105-.839-.194-1.14l-.954-.953 1.414-1.414.954.954c.301.3.759.379 1.142.193.155-.075.315-.141.48-.199.399-.141.667-.519.667-.942v-1.35h2v1.35c0 .423.267.801.667.942.165.058.325.124.48.199.385.185.841.106 1.142-.193l.954-.954 1.414 1.414-.954.953c-.3.301-.378.757-.194 1.14.075.157.142.318.2.483.142.398.519.666.943.666h1.348z"/><path d="m18 49.999c-2.206 0-4 1.794-4 4 0 2.205 1.794 3.999 4 3.999s4-1.794 4-3.999c0-2.206-1.794-4-4-4zm0 5.999c-1.103 0-2-.896-2-1.999 0-1.104.897-2 2-2s2 .896 2 2c0 1.103-.897 1.999-2 1.999z"/></g></g></svg>