<svg height="512" viewBox="0 0 64 64" width="512" xmlns="http://www.w3.org/2000/svg"><g id="jerrycan"><path d="m61 8-2 2-3-1-2.95 4.91-5.96-5.96 8.91-4.95z" fill="#00b6bd"/><path d="m47.09 7.95 5.96 5.96 1.26 1.26-4.24 4.24-1.41-1.41-5.66-5.66-1.41-1.41 4.24-4.24z" fill="#57a4ff"/><path d="m42.414 12.583h4.002v8.004h-4.002z" fill="#00b6bd" transform="matrix(.707 -.707 .707 .707 1.281 36.264)"/><path d="m61 8-2 2-3-1-2.95 4.91-2-2 2.95-4.91 3 1 2-2z" fill="#009698"/><path d="m44.244 17.001h4.002v2.828h-4.002z" fill="#009698" transform="matrix(.707 -.707 .707 .707 .523 38.094)"/><path d="m47 22v34a5 5 0 0 1 -5 5h-34a5 5 0 0 1 -5-5v-48a5 5 0 0 1 5-5h5v10h25z" fill="#e0e0e2"/><path d="m47 22v34a5 5 0 0 1 -5 5h-4a5 5 0 0 0 5-5v-38z" fill="#acabb1"/><path d="m43 23.66v31.34a2.006 2.006 0 0 1 -2 2h-32a2.006 2.006 0 0 1 -2-2v-36a2.006 2.006 0 0 1 2-2h27.34z" fill="#00b6bd"/><path d="m43 23.66v31.34a2.006 2.006 0 0 1 -2 2h-4a2.006 2.006 0 0 0 2-2v-31.34l-6.66-6.66h4z" fill="#009698"/><path d="m37 9v4h-4v-4h-20v-4h20a4 4 0 0 1 4 4z" fill="#898890"/><path d="m31 47a6 6 0 0 1 -12 0c0-3.31 6-14 6-14s6 10.69 6 14z" fill="#ffde55"/><path d="m31 47a6 6 0 0 1 -11.12 3.12 5.91 5.91 0 0 0 3.12.88 6 6 0 0 0 6-6c0-2.22-2.69-7.74-4.47-11.15.29-.54.47-.85.47-.85s6 10.69 6 14z" fill="#ffcd00"/><path d="m11 21h12v8h-12z" fill="#57a4ff"/><path d="m61.71 7.29-5-5a1.012 1.012 0 0 0 -1.2-.16l-8.25 4.58-.72-.73a1.008 1.008 0 0 0 -1.42 0l-4.24 4.24a.99.99 0 0 0 -.29.71 1.007 1.007 0 0 0 .29.71l.71.7-1.42 1.42-1.46-1.47a1.033 1.033 0 0 0 -.71-.29v-3a5 5 0 0 0 -5-5h-19v-1a1 1 0 0 0 -1-1h-5a6 6 0 0 0 -6 6v48a6 6 0 0 0 6 6h34a6 6 0 0 0 6-6v-34a1.033 1.033 0 0 0 -.29-.71l-.47-.46 1.42-1.42.7.71a1 1 0 0 0 .71.29.982.982 0 0 0 .71-.29l4.24-4.24a1.008 1.008 0 0 0 0-1.42l-.71-.7 2.13-3.56 2.24.75a1.028 1.028 0 0 0 1.03-.24l2-2a1.008 1.008 0 0 0 0-1.42zm-47.71-1.29h19a3.009 3.009 0 0 1 3 3v3h-2v-3a1 1 0 0 0 -1-1h-19zm0 4h18v2h-18zm32 46a4 4 0 0 1 -4 4h-34a4 4 0 0 1 -4-4v-48a4 4 0 0 1 4-4h4v9a1 1 0 0 0 1 1h24.59l1.87 1.88 2.83 2.83 3.71 3.7zm-.17-36.59-4.24-4.24 1.41-1.41 4.24 4.24zm4.24-1.41-7.07-7.07 2.83-2.83 7.07 7.07zm8.66-9.14-2.41-.81a1 1 0 0 0 -1.18.44l-2.29 3.81-4.11-4.12 7.09-3.94 3.76 3.76z"/><path d="m43.71 22.95-6.66-6.66a1.033 1.033 0 0 0 -.71-.29h-27.34a3.009 3.009 0 0 0 -3 3v36a3.009 3.009 0 0 0 3 3h32a3.009 3.009 0 0 0 3-3v-31.34a1.033 1.033 0 0 0 -.29-.71zm-1.71 32.05a1 1 0 0 1 -1 1h-32a1 1 0 0 1 -1-1v-36a1 1 0 0 1 1-1h26.93l6.07 6.07z"/><path d="m24 29v-8a1 1 0 0 0 -1-1h-12a1 1 0 0 0 -1 1v8a1 1 0 0 0 1 1h12a1 1 0 0 0 1-1zm-2-1h-10v-6h10z"/><path d="m24.128 32.511c-.628 1.117-6.128 11.014-6.128 14.489a7 7 0 0 0 14 0c0-3.475-5.5-13.372-6.128-14.489a1.04 1.04 0 0 0 -1.744 0zm.872 19.489a5.006 5.006 0 0 1 -5-5c0-1.976 2.735-7.712 5-11.923 2.265 4.21 5 9.946 5 11.923a5.006 5.006 0 0 1 -5 5z"/><path d="m26 22h12v2h-12z"/><path d="m26 26h12v2h-12z"/></g></svg>