<svg id="Capa_1" enable-background="new 0 0 512 512" height="512" viewBox="0 0 512 512" width="512" xmlns="http://www.w3.org/2000/svg"><g><path d="m100.308 256c0 85.986 69.706 155.692 155.692 155.692l24.713-155.692-24.713-155.692c-85.986 0-155.692 69.706-155.692 155.692z" fill="#cecedc"/><path d="m256 100.308v311.383c85.986 0 155.692-69.706 155.692-155.692s-69.706-155.691-155.692-155.691z" fill="#a8a8c2"/><g><g><path d="m185.457 137.695h30v104.597h-30z" fill="#9595b5" transform="matrix(.766 -.643 .643 .766 -75.228 173.302)"/></g><g><path d="m241 117.479h21.693v104.597h-21.693z" fill="#9595b5"/><path d="m256 117.479h15v104.597h-15z" fill="#6e6e84"/></g><g><path d="m155.904 188.883h30v104.597h-30z" fill="#9595b5" transform="matrix(.174 -.985 .985 .174 -96.292 367.609)"/></g><g><path d="m128.869 284.392h104.597v30h-104.597z" fill="#9595b5" transform="matrix(.866 -.5 .5 .866 -125.425 130.696)"/></g><g><path d="m174.148 322.385h104.597v30h-104.597z" fill="#9595b5" transform="matrix(.342 -.94 .94 .342 -168.042 434.779)"/></g><g><path d="m270.554 285.087h30v104.597h-30z" fill="#6e6e84" transform="matrix(.94 -.342 .342 .94 -98.172 118.012)"/></g><g><path d="m315.833 247.093h30v104.597h-30z" fill="#6e6e84" transform="matrix(.5 -.866 .866 .5 -93.865 436.205)"/></g><g><path d="m288.798 226.182h104.597v30h-104.597z" fill="#6e6e84" transform="matrix(.985 -.174 .174 .985 -36.696 62.89)"/></g><g><path d="m259.244 174.994h104.597v30h-104.597z" fill="#6e6e84" transform="matrix(.643 -.766 .766 .643 -34.255 306.528)"/></g></g><g><path d="m123.492 256c0-73.182 59.326-132.508 132.508-132.508l21.617-64.696-21.617-58.796c-141.385 0-256 114.615-256 256s114.615 256 256 256l21.617-57.666-21.617-65.826c-73.182 0-132.508-59.326-132.508-132.508z" fill="#525264"/><path d="m256 0v123.492c73.182 0 132.508 59.326 132.508 132.508s-59.326 132.508-132.508 132.508v123.492c141.385 0 256-114.615 256-256s-114.615-256-256-256z" fill="#3a3c4c"/></g><g><path d="m206.889 256.187c0 27.08 22.031 49.111 49.111 49.111l4.454-49.298-4.454-48.924c-27.08 0-49.111 22.031-49.111 49.111z" fill="#6e6e84"/></g><g><path d="m305.111 256.187c0 27.08-22.031 49.111-49.111 49.111v-98.222c27.08 0 49.111 22.031 49.111 49.111z" fill="#525264"/></g></g></svg>