<svg id="Filled" height="512" viewBox="0 0 512 512" width="512" xmlns="http://www.w3.org/2000/svg"><path d="m24 280h144v32h-144z" fill="#2d85cc"/><path d="m184 280h144v32h-144z" fill="#8f9e46"/><path d="m344 280h144v32h-144z" fill="#f7b030"/><path d="m160 184h-128l-8 96h144z" fill="#3397e8"/><path d="m40 488h112l8-176h-128z" fill="#3397e8"/><path d="m200 488h112l8-176h-128z" fill="#b1bd70"/><path d="m360 488h112l8-176h-128z" fill="#ffb632"/><path d="m128 216h-64l-8 64h80z" fill="#2978b8"/><path d="m320 184h-128l-8 96h144z" fill="#b1bd70"/><path d="m288 216h-64l-8 64h80z" fill="#828c52"/><path d="m480 184h-128l-8 96h144z" fill="#ffb632"/><path d="m448 216h-64l-8 64h80z" fill="#e09f2c"/><g fill="#e9eef2"><circle cx="416" cy="400" r="24"/><circle cx="256" cy="400" r="24"/><circle cx="96" cy="400" r="24"/></g><path d="m400 40h32v32h-32z" fill="#2978b8"/><path d="m424.845 180.422-8.845-4.422-8.845 4.422a16 16 0 0 1 -23.155-14.311v-78.111a16 16 0 0 1 16-16h32a16 16 0 0 1 16 16v78.111a16 16 0 0 1 -23.155 14.311z" fill="#dadcde"/><path d="m384 104h64v40h-64z" fill="#2978b8"/><path d="m256 152a32 32 0 0 1 32 32 0 0 0 0 1 0 0h-64a0 0 0 0 1 0 0 32 32 0 0 1 32-32z" fill="#eb423f" transform="matrix(-1 0 0 -1 512 336)"/><path d="m256 88a32 32 0 0 1 32 32 0 0 0 0 1 0 0h-64a0 0 0 0 1 0 0 32 32 0 0 1 32-32z" fill="#eb423f"/><path d="m232 152 8-16v-16h32v16l8 16z" fill="#dadcde"/><path d="m48 104h96v80h-96z" fill="#e09f2c"/><path d="m80 104h32v32h-32z" fill="#dadcde"/><path d="m495.967 279.336h.006l-8-96a8 8 0 0 0 -7.973-7.336h-26.12a24.038 24.038 0 0 0 2.12-9.889v-78.111a24.039 24.039 0 0 0 -16-22.624v-25.376a8 8 0 0 0 -8-8h-32a8 8 0 0 0 -8 8v25.376a24.039 24.039 0 0 0 -16 22.624v78.111a24.038 24.038 0 0 0 2.12 9.889h-26.12a8 8 0 0 0 -7.973 7.336l-8 96h.006c-.018.22-.033.44-.033.664 0-.224-.015-.444-.033-.664h.006l-8-96a8 8 0 0 0 -7.973-7.336h-32.022a39.788 39.788 0 0 0 8.022-24 8 8 0 0 0 -8-8h-3.056l-4.944-9.889v-6.111h8a8 8 0 0 0 8-8 40.068 40.068 0 0 0 -32-39.195v-8.805a8 8 0 0 0 -16 0v8.805a40.068 40.068 0 0 0 -32 39.195 8 8 0 0 0 8 8h8v6.111l-4.944 9.889h-3.056a8 8 0 0 0 -8 8 39.788 39.788 0 0 0 8.022 24h-32.022a8 8 0 0 0 -7.973 7.336l-8 96h.006c-.018.22-.033.44-.033.664 0-.224-.015-.444-.034-.664h.007l-8-96a8 8 0 0 0 -7.973-7.336h-8v-72a7.955 7.955 0 0 0 -1.345-4.437l-.013-.02-.018-.026-31.968-47.955a8 8 0 0 0 -13.312 8.876l23.708 35.562h-58.246l22.194-17.753a8 8 0 1 0 -10-12.494l-40 32a7.982 7.982 0 0 0 -3 6.247v72h-8a8 8 0 0 0 -7.973 7.336l-8 96h.007c-.019.22-.034.44-.034.664v32a8 8 0 0 0 8 8h.355l7.653 168.363a8 8 0 0 0 7.992 7.637h112a8 8 0 0 0 7.992-7.637l7.653-168.363h.355a8 8 0 0 0 8-8 8 8 0 0 0 8 8h.355l7.653 168.363a8 8 0 0 0 7.992 7.637h112a8 8 0 0 0 7.992-7.637l7.653-168.363h.355a8 8 0 0 0 8-8 8 8 0 0 0 8 8h.355l7.653 168.363a8 8 0 0 0 7.992 7.637h112a8 8 0 0 0 7.992-7.637l7.653-168.363h.355a8 8 0 0 0 8-8v-32c0-.224-.015-.444-.033-.664zm-87.967-231.336h16v16h-16zm-16 40a8.009 8.009 0 0 1 8-8h32a8.009 8.009 0 0 1 8 8v8h-48zm0 24h48v24h-48zm0 40h48v14.111a8 8 0 0 1 -11.577 7.156l-8.845-4.422a7.993 7.993 0 0 0 -7.154 0l-8.846 4.422a8 8 0 0 1 -11.578-7.156zm-304-40h16v16h-16zm-32 0h16v24a8 8 0 0 0 8 8h32a8 8 0 0 0 8-8v-24h16v64h-80zm-16.639 80h113.278l6.666 80h-16.243l-7.124-56.992a8 8 0 0 0 -7.938-7.008h-64a8 8 0 0 0 -7.939 7.008l-7.123 56.992h-16.238zm87.577 80h-61.876l6-48h49.876zm17.417 208h-96.711l-7.272-160h111.256zm15.645-176h-128v-16h128zm96-208a24.042 24.042 0 0 1 22.629 16h-45.258a24.042 24.042 0 0 1 22.629-16zm8.845 43.578 2.211 4.422h-22.112l2.211-4.422a7.994 7.994 0 0 0 .845-3.578v-8h16v8a7.994 7.994 0 0 0 .845 3.578zm-31.474 20.422h45.258a24 24 0 0 1 -45.258 0zm-34.01 32h113.278l6.666 80h-16.243l-7.124-56.992a8 8 0 0 0 -7.938-7.008h-64a8 8 0 0 0 -7.939 7.008l-7.123 56.992h-16.238zm87.577 80h-61.876l6-48h49.876zm17.417 208h-96.711l-7.272-160h111.256zm15.645-176h-128v-16h128zm39.361-112h113.278l6.666 80h-16.243l-7.124-56.992a8 8 0 0 0 -7.938-7.008h-64a8 8 0 0 0 -7.938 7.008l-7.124 56.992h-16.238zm87.577 80h-61.876l6-48h49.876zm17.417 208h-96.71l-7.273-160h111.256zm15.645-176h-128v-16h128z"/><path d="m416 432a32 32 0 1 0 -32-32 32.036 32.036 0 0 0 32 32zm0-48a16 16 0 1 1 -16 16 16.019 16.019 0 0 1 16-16z"/><path d="m256 432a32 32 0 1 0 -32-32 32.036 32.036 0 0 0 32 32zm0-48a16 16 0 1 1 -16 16 16.019 16.019 0 0 1 16-16z"/><path d="m96 432a32 32 0 1 0 -32-32 32.036 32.036 0 0 0 32 32zm0-48a16 16 0 1 1 -16 16 16.019 16.019 0 0 1 16-16z"/></svg>