<svg id="Filled" height="512" viewBox="0 0 512 512" width="512" xmlns="http://www.w3.org/2000/svg"><path d="m280 48 60.622 30.311a64 64 0 0 1 35.378 57.243v112.446h-64v160h-224v-160h-64v-112.446a64 64 0 0 1 35.378-57.243l60.622-30.311z" fill="#c3c6c7"/><path d="m312 216h64v32h-64z" fill="#9aa3a8" transform="matrix(-1 0 0 -1 688 464)"/><path d="m320 224a8 8 0 0 1 -8-8v-56a8 8 0 0 1 16 0v56a8 8 0 0 1 -8 8z" fill="#b6b9ba"/><path d="m240 24v40l-40 48-40-48v-40z" fill="#c3c6c7"/><path d="m296 80h-32v32l-64 32v-32l40-48v-40l32 8z" fill="#9aa3a8"/><path d="m200 112v32l-64-32v-32h-32l24-48 32-8v40z" fill="#9aa3a8"/><path d="m88 192h64v80h-64z" fill="#b6b9ba"/><path d="m88 192h64v32h-64z" fill="#9aa3a8"/><path d="m288 144h192v48h-192z" fill="#966651"/><path d="m488 224v264h-80l-3.84-32-20.16-168-20.16 168-3.84 32h-80v-264l8-32h192z" fill="#b37a60"/><path d="m363.84 456-3.84 32h-80v-32z" fill="#966651"/><path d="m488 456v32h-80l-3.84-32z" fill="#966651"/><path d="m160 24h80v32h-80z" fill="#b6b9ba"/><path d="m24 216h64v32h-64z" fill="#9aa3a8"/><path d=""/><path d="m488 191.017v-47.017a8 8 0 0 0 -8-8h-96v-.446a71.609 71.609 0 0 0 -39.8-64.4l-58.237-29.117-6.808-13.615a8 8 0 0 0 -5.215-4.183l-32-8a7.95 7.95 0 0 0 -1.94-.233v-.006h-80a7.951 7.951 0 0 0 -1.94.234l-32 8a8 8 0 0 0 -5.215 4.183l-6.808 13.615-58.237 29.123a71.609 71.609 0 0 0 -39.8 64.4v112.445a8 8 0 0 0 8 8h56v152a8 8 0 0 0 8 8h184v72a8 8 0 0 0 8 8h80a8 8 0 0 0 7.943-7.047l16.057-133.808 16.057 133.808a8 8 0 0 0 7.943 7.047h80a8 8 0 0 0 8-8v-264a7.977 7.977 0 0 0 -.239-1.94zm-192-7.017v-32h16v32zm32-32h16v32h-16zm32 0h16v32h-16zm32 0h16v32h-16zm32 0h16v32h-16zm32 0h16v32h-16zm-209.854-82.879a8 8 0 0 0 1.854-5.121v-29.754l18.49 4.623 16.566 33.131h-19.056a8 8 0 0 0 -8 8v27.056l-48 24v-16.156zm-14.146-21.121h-64v-16h64zm-2.414 16-29.586 35.5-29.586-35.5zm-96.076-25.131 18.49-4.623v29.754a8 8 0 0 0 1.854 5.121l38.146 45.779v16.16l-48-24v-27.06a8 8 0 0 0 -8-8h-19.056zm-101.51 201.131v-16h48v16zm64-40h48v16h-48zm0 48v-16h48v32h-48zm0 32h56a8 8 0 0 0 8-8v-80a8 8 0 0 0 -8-8h-56v-24a8 8 0 0 0 -16 0v48h-48v-72.446a55.7 55.7 0 0 1 30.956-50.088l39.156-19.578-5.267 10.534a8 8 0 0 0 7.155 11.578h24v24a8 8 0 0 0 4.422 7.155l59.578 29.789v251.056h-96zm112 120v-251.056l59.578-29.789a8 8 0 0 0 4.422-7.155v-24h24a8 8 0 0 0 7.155-11.578l-5.266-10.534 39.155 19.578a55.7 55.7 0 0 1 30.956 50.088v.446h-80a8 8 0 0 0 -8 8v47.017l-7.761 31.043a7.977 7.977 0 0 0 -.239 1.94v176zm80 80v-16h66.822l-1.92 16zm103.943-192.953a8 8 0 0 0 -15.886 0l-19.315 160.953h-68.742v-223.015l6.246-24.985h179.508l6.246 24.985v223.015h-68.742zm23.157 192.953-1.92-16h66.82v16z"/></svg>