<svg id="Capa_1" enable-background="new 0 0 512 512" height="512" viewBox="0 0 512 512" width="512" xmlns="http://www.w3.org/2000/svg"><g><g><g><path d="m369.324 45.252h-23.259v-24.539c-.001-11.421-9.293-20.713-20.713-20.713h-138.704c-11.421 0-20.713 9.292-20.713 20.713v24.539h-23.259c-16.628 0-30.156 13.528-30.156 30.156v406.435c0 16.629 13.528 30.156 30.156 30.156h226.647c16.628 0 30.156-13.528 30.156-30.156v-180.636c0-5.523-4.477-10-10-10s-10 4.477-10 10v180.637c0 5.6-4.556 10.156-10.156 10.156h-226.647c-5.6 0-10.156-4.556-10.156-10.156v-406.435c0-5.6 4.556-10.156 10.156-10.156h226.647c5.6 0 10.156 4.556 10.156 10.156v135.385c0 5.523 4.477 10 10 10s10-4.477 10-10v-135.385c.001-16.629-13.527-30.157-30.155-30.157zm-183.389 0v-24.539c0-.394.32-.713.713-.713h138.703c.393 0 .713.32.713.713v24.539z"/><path d="m397.79 250.63c-2.349-3.585-6.951-5.231-11.053-4.055-3.971 1.138-6.865 4.677-7.22 8.789-.358 4.151 2.05 8.215 5.84 9.926 3.759 1.696 8.273.873 11.192-2.04 3.312-3.303 3.898-8.738 1.241-12.62z"/><path d="m166.52 275.599c-5.523 0-10 4.477-10 10v169.033c0 5.523 4.477 10 10 10h178.96c5.523 0 10-4.477 10-10v-169.033c0-5.523-4.477-10-10-10h-80.546l52.862-90.01c1.816-3.092 1.837-6.919.056-10.032-1.781-3.112-5.093-5.032-8.679-5.032h-35.044v-63.134c0-4.512-3.022-8.465-7.376-9.649-4.352-1.185-8.962.694-11.247 4.585l-61.302 104.381c-1.816 3.092-1.837 6.919-.056 10.032 1.781 3.112 5.093 5.032 8.679 5.032h35.044v53.826h-71.351zm53.776-73.826 33.833-57.607v36.36c0 5.523 4.477 10 10 10h27.575l-33.832 57.607v-36.36c0-5.523-4.477-10-10-10zm115.184 186.515h-158.96v-36.344h158.96zm0 56.344h-158.96v-36.345h158.96zm0-112.689h-158.96v-36.344h158.96z"/></g></g></g></svg>