<svg width="930" height="550" viewBox="0 0 930 550" fill="none" xmlns="http://www.w3.org/2000/svg">
<g id="green-map-start-screen" clip-path="url(#clip0)">
<g id="background">
<mask id="mask0" mask-type="alpha" maskUnits="userSpaceOnUse" x="24" y="3" width="890" height="546">
<path id="Vector 1" d="M913.739 548.5H24.2612V3H913.739V10.4454V548.5Z" fill="#C4C4C4"/>
</mask>
<g mask="url(#mask0)">
<circle id="background_2" cx="449.642" cy="431.359" r="425.381" fill="#EEEEEE"/>
</g>
</g>
<path id="flor" d="M920 548.087H11V550.087H920V548.087Z" fill="#3F3D56"/>
<g id="grass">
<path id="Path1" d="M204.679 548.126H64.079C64.079 548.126 61.229 506.326 78.091 505.851C94.953 505.376 93.053 524.376 114.191 498.251C135.329 472.126 160.978 473.551 164.303 488.989C167.628 504.427 157.891 516.776 175.703 512.976C193.515 509.176 219.166 519.15 204.679 548.126Z" fill="#94C83D"/>
<path id="Path2" d="M132.006 548.136L131.531 548.117C132.638 520.597 138.401 502.917 143.042 492.927C148.08 482.083 152.935 477.693 152.984 477.65L153.3 478.005C153.252 478.048 148.454 482.394 143.456 493.165C138.841 503.109 133.109 520.719 132.006 548.136Z" fill="white"/>
<path id="Path3" d="M182.892 548.192L182.436 548.059C185.972 536.395 192.346 525.791 200.987 517.196L201.306 517.548C192.729 526.083 186.402 536.612 182.892 548.192Z" fill="white"/>
<path id="Path4" d="M86.225 548.159L85.754 548.094C87.287 537.776 85.6651 527.235 81.101 517.856C79.23 513.922 76.7532 510.306 73.761 507.14L74.09 506.797C77.1227 510.001 79.6336 513.661 81.531 517.645C86.1362 527.11 87.7724 537.747 86.225 548.159Z" fill="white"/>
<path id="Path5" d="M223.76 548.761H48.915L48.875 548.169C48.775 546.696 46.544 511.941 57.805 499.54C58.9222 498.229 60.3014 497.168 61.8537 496.423C63.406 495.678 65.097 495.266 66.818 495.215C74.158 495.006 78.771 497.756 82.492 499.962C89.505 504.122 94.137 506.871 110.982 486.052C129.229 463.499 148.918 458.646 160.236 461.344C167.549 463.088 172.589 468.015 174.064 474.864C175.464 481.349 175.016 487.442 174.658 492.339C174.275 497.578 173.973 501.715 176.125 503.591C177.925 505.156 181.506 505.298 187.406 504.039C199.406 501.479 216.154 503.669 224.559 514.53C229.081 520.373 232.644 530.993 223.936 548.41L223.76 548.761ZM50.108 547.49H222.973C229.462 534.325 229.665 523.203 223.554 515.308C215.843 505.345 199.666 502.723 187.671 505.282C181.26 506.65 177.441 506.424 175.29 504.55C172.659 502.258 172.982 497.84 173.39 492.25C173.742 487.435 174.179 481.442 172.821 475.135C171.453 468.784 166.758 464.209 159.94 462.584C148.983 459.97 129.84 464.761 111.969 486.854C94.435 508.526 89.152 505.394 81.843 501.054C78.076 498.82 73.8 496.287 66.853 496.484C65.3036 496.533 63.7818 496.907 62.3854 497.58C60.989 498.253 59.7489 499.211 58.745 500.393C48.627 511.539 49.861 542.791 50.109 547.49H50.108Z" fill="#2F2E41"/>
</g>
<g id="backet">
<path id="Path8" d="M795.06 549.467H622.844L622.811 548.502L614.588 313.322H803.315L795.06 549.467ZM624.776 547.467H793.128L801.245 315.322H616.658L624.776 547.467Z" fill="#2F2E41"/>
<path id="Vector" d="M728.639 393.01L749.415 381.242L758.724 398.255C760.973 407.549 748.651 410.961 738.757 410.406L728.639 393.01Z" fill="#5E9641"/>
<path id="Vector_2" d="M723.918 405.162L712.99 423.453L723.918 442L724.188 434.581H734.17C737.813 434.879 742.535 432.62 744.289 429.337L757.105 407.08C752.878 411.045 747.442 412.069 741.186 412.069H724.322L723.918 405.162ZM699.502 382.61L678.567 371.1L689.736 355.126C697.215 348.751 706.342 357.309 710.633 365.779L699.502 382.61Z" fill="#5E9641"/>
<path id="Vector_3" d="M713.001 380.626L735.172 380.806L746.971 362.745L739.999 366.123L735.153 357.847C733.66 354.683 729.284 351.866 725.406 352.006L698.661 352.185C704.37 353.764 707.951 357.773 710.988 362.959L719.174 376.938L713.001 380.626ZM662.547 381.657L669.033 386.361L662.928 397.214C659.875 402.219 665.12 407.094 668.461 408.792C671.751 410.462 676.856 410.661 681.626 410.601L690.211 397.577L696.698 400.833L685.441 381.477L662.547 381.657Z" fill="#5E9641"/>
<path id="Vector_4" d="M663.5 406.801L677.427 430.679C680.226 433.996 685.504 434.78 690.974 434.659H705.664V412.047L677.809 411.866C673.484 412.108 667.824 411.263 663.5 406.801Z" fill="#5E9641"/>
</g>
<g id="backet-lid">
<path id="Vector_5" d="M836.751 314.413L835.751 314.414L582.702 314.582L582.679 279.848L583.68 279.847L836.727 279.68L836.751 314.413ZM584.701 312.58L834.749 312.415L834.729 281.682L584.681 281.846L584.701 312.58Z" fill="#2F2E41"/>
<path id="Path10" d="M714.704 218.147C707.346 218.147 700.142 220.258 693.947 224.229C687.752 228.201 682.827 233.866 679.756 240.553C676.684 247.24 675.596 254.668 676.619 261.955C677.643 269.242 680.735 276.082 685.53 281.664L697.596 281.656C692.247 277.998 688.21 272.723 686.075 266.604C683.941 260.485 683.822 253.843 685.735 247.652C687.648 241.46 691.493 236.044 696.708 232.195C701.922 228.347 708.231 226.269 714.712 226.266C721.192 226.263 727.503 228.335 732.721 232.178C737.939 236.021 741.79 241.434 743.709 247.624C745.628 253.813 745.516 260.455 743.387 266.576C741.259 272.697 737.227 277.976 731.881 281.64L743.947 281.632C748.737 276.045 751.823 269.202 752.839 261.914C753.856 254.625 752.76 247.199 749.682 240.515C746.604 233.831 741.674 228.17 735.475 224.205C729.277 220.239 722.07 218.135 714.712 218.142L714.704 218.147Z" fill="#2F2E41"/>
</g>
<g id="man">
<g id="arm-and-bottle">
<path id="Path116" d="M518.58 303.942C516.838 303.817 515.144 303.312 513.618 302.462C512.092 301.612 510.772 300.437 509.749 299.021C508.726 297.606 508.026 295.983 507.699 294.267C507.371 292.551 507.424 290.785 507.853 289.092L423.499 157.223L447.39 147.023L523.226 280.546C526.027 281.451 528.397 283.353 529.888 285.891C531.378 288.429 531.885 291.425 531.312 294.312C530.739 297.199 529.126 299.775 526.778 301.551C524.431 303.327 521.514 304.179 518.58 303.946V303.942Z" fill="#FEB8B8"/>
<path id="Vector_6" d="M550.264 256.706L552.888 252.16C553.613 250.904 553.183 249.299 551.928 248.574L540.563 242.012C539.307 241.288 537.702 241.718 536.977 242.973L534.352 247.519L550.264 256.706Z" fill="#1A6FB0"/>
<path id="Vector_7" d="M543.959 283.373C544.684 282.118 544.254 280.512 542.999 279.788L517.995 265.352C516.74 264.627 515.135 265.057 514.41 266.313C513.685 267.568 514.115 269.173 515.371 269.898L540.374 284.334C541.629 285.058 543.235 284.628 543.959 283.373Z" fill="#C4C4C4" fill-opacity="0.5"/>
<path id="Vector_8" d="M511.785 270.859C511.06 272.114 511.491 273.719 512.746 274.444L537.749 288.88C539.005 289.605 540.61 289.174 541.335 287.919C542.06 286.664 541.629 285.058 540.374 284.334L515.371 269.898C514.115 269.173 512.51 269.603 511.785 270.859Z" fill="#C4C4C4" fill-opacity="0.5"/>
<path id="Vector_9" d="M509.161 275.405C508.436 276.66 508.866 278.265 510.121 278.99L535.125 293.426C536.38 294.151 537.985 293.72 538.71 292.465C539.435 291.21 539.005 289.605 537.749 288.88L512.746 274.444C511.491 273.719 509.885 274.149 509.161 275.405Z" fill="#C4C4C4" fill-opacity="0.5"/>
<path id="Vector_10" d="M506.536 279.951L496.037 298.135C494.588 300.646 495.448 303.856 497.959 305.306L518.416 317.117C520.926 318.567 524.137 317.706 525.587 315.196L536.085 297.011C536.81 295.756 536.38 294.151 535.125 293.426L510.121 278.99C508.866 278.265 507.261 278.696 506.536 279.951ZM518.768 311.259C520.023 311.983 521.628 311.553 522.353 310.298C521.628 311.553 520.023 311.983 518.768 311.259Z" fill="#C4C4C4" fill-opacity="0.5"/>
<path id="Vector_11" d="M546.657 277.52L544.348 260.168C544.271 259.594 544.387 259.011 544.676 258.51L546.854 254.737L537.762 249.488L535.584 253.261C535.294 253.762 534.847 254.153 534.312 254.374L518.13 261.05C517.37 261.55 516.923 262.409 516.951 263.319C516.979 264.228 517.478 265.058 518.268 265.51L542.726 279.63C543.512 280.089 544.48 280.106 545.282 279.676C546.084 279.245 546.605 278.429 546.657 277.52Z" fill="#C4C4C4" fill-opacity="0.5"/>
<path id="Vector_12" d="M542.897 285.791C544.913 285.155 546.055 283.027 545.47 280.996C545.621 280.948 545.77 280.891 545.914 280.824C547.116 280.18 547.894 278.956 547.967 277.595C547.971 277.512 547.968 277.43 547.958 277.349L545.648 259.995C545.61 259.707 545.668 259.416 545.813 259.165L547.335 256.53L549.608 257.842C550.235 258.204 551.038 257.989 551.4 257.362L554.025 252.816C555.112 250.933 554.467 248.525 552.584 247.438L541.219 240.876C539.336 239.789 536.928 240.434 535.841 242.317L533.216 246.863C532.854 247.491 533.069 248.293 533.696 248.656L535.969 249.968L534.448 252.603C534.303 252.855 534.079 253.051 533.81 253.162L517.629 259.837C517.553 259.868 517.481 259.907 517.411 259.952C516.269 260.695 515.598 261.982 515.641 263.344C515.655 263.502 515.68 263.66 515.714 263.815C513.662 264.324 512.389 266.376 512.848 268.441C510.924 269.044 509.783 271.02 510.223 272.988C508.299 273.59 507.158 275.567 507.598 277.534C506.672 277.827 505.888 278.455 505.399 279.295L494.901 297.479C493.093 300.618 494.168 304.628 497.302 306.443L517.76 318.254C520.899 320.061 524.908 318.987 526.723 315.852L537.222 297.667C537.705 296.825 537.856 295.832 537.648 294.883C539.572 294.281 540.713 292.304 540.273 290.337C542.196 289.734 543.338 287.758 542.897 285.791ZM537.574 291.809C537.211 292.437 536.409 292.652 535.781 292.289L510.777 277.854C510.15 277.491 509.935 276.689 510.297 276.061C510.659 275.433 511.462 275.218 512.09 275.581L537.093 290.016C537.721 290.379 537.936 291.181 537.574 291.809ZM513.402 273.308C512.774 272.945 512.559 272.142 512.922 271.515C513.284 270.887 514.087 270.672 514.714 271.035L539.718 285.47C540.346 285.833 540.561 286.635 540.198 287.263C539.836 287.891 539.033 288.106 538.406 287.743L513.402 273.308ZM515.546 266.969C515.909 266.341 516.711 266.126 517.339 266.488L542.343 280.924C542.97 281.287 543.185 282.089 542.823 282.717C542.461 283.345 541.658 283.56 541.03 283.197L516.027 268.761C515.399 268.399 515.184 267.596 515.546 266.969ZM538.114 243.629C538.476 243.002 539.279 242.787 539.906 243.149L551.272 249.711C551.899 250.073 552.114 250.876 551.752 251.503L549.783 254.913L536.145 247.039L538.114 243.629ZM518.764 262.209L534.812 255.587C535.615 255.255 536.285 254.668 536.721 253.916L538.242 251.28L545.062 255.217L543.54 257.853C543.107 258.605 542.934 259.479 543.047 260.34L545.336 277.55C545.283 277.961 545.034 278.321 544.669 278.515C544.266 278.735 543.778 278.727 543.382 278.494L518.924 264.373C518.525 264.147 518.273 263.728 518.263 263.27C518.249 262.856 518.436 262.461 518.764 262.209ZM524.45 314.539C523.363 316.422 520.955 317.068 519.072 315.981L498.615 304.169C496.732 303.082 496.087 300.674 497.174 298.791L507.672 280.607C508.035 279.979 508.837 279.764 509.465 280.127L534.469 294.562C535.096 294.925 535.311 295.728 534.949 296.355L524.45 314.539Z" fill="#2F2E41"/>
<path id="Vector_13" d="M526.29 303.479C525.662 303.116 524.86 303.331 524.497 303.959L521.216 309.642C520.854 310.269 520.051 310.484 519.424 310.122L512.605 306.185C511.977 305.823 511.174 306.038 510.812 306.665C510.45 307.293 510.665 308.096 511.292 308.458L518.111 312.395C519.994 313.482 522.402 312.837 523.489 310.954L526.77 305.271C527.133 304.644 526.918 303.841 526.29 303.479Z" fill="#231F20"/>
</g>
<g id="arm">
<path id="right-arm" d="M301.548 293.497C300.626 292.014 300.041 290.347 299.833 288.613C299.625 286.88 299.8 285.122 300.344 283.463C300.889 281.804 301.791 280.285 302.986 279.012C304.182 277.739 305.642 276.744 307.263 276.097L364.442 130.37L386.73 143.715L323.212 283.515C324.12 286.311 323.97 289.344 322.791 292.038C321.611 294.732 319.485 296.899 316.814 298.13C314.144 299.36 311.115 299.568 308.301 298.714C305.487 297.86 303.084 296.004 301.548 293.497Z" fill="#FEB8B8"/>
</g>
<path id="Path111" d="M408.037 534.44H393.473L386.541 478.266H408.041L408.037 534.44Z" fill="#FEB8B8"/>
<path id="Path112" d="M365.386 547.962H411.157V530.278H382.825C378.2 530.278 373.764 532.115 370.494 535.385C367.223 538.656 365.386 543.091 365.386 547.717V547.962Z" fill="#2F2E41"/>
<path id="Path113" d="M402.918 447.395L412.964 457.94L458.416 424.213L443.59 408.65L402.918 447.395Z" fill="#FEB8B8"/>
<path id="Path114" d="M423.313 462.771L403.764 442.258L390.961 454.46L422.543 487.599L422.72 487.43C424.378 485.849 425.709 483.958 426.636 481.864C427.563 479.769 428.069 477.513 428.124 475.223C428.179 472.933 427.782 470.655 426.957 468.518C426.132 466.382 424.894 464.429 423.313 462.771V462.771Z" fill="#2F2E41"/>
<path id="Path117" d="M365.005 278.905L379.936 500.818L415.618 497.67L422.964 333.948L442.904 404.262L485.932 407.41L468.901 268.41L365.005 278.905Z" fill="#2F2E41"/>
<path id="Path118" d="M449.201 393.768L442.901 404.263L398.828 434.697L430.312 451.489C430.312 451.489 491.181 417.906 485.934 407.411L449.201 393.768Z" fill="#2F2E41"/>
<path id="Path119" d="M333.759 189.121L346.18 154.121C348.943 146.333 353.224 139.171 358.774 133.048C364.323 126.926 371.032 121.965 378.512 118.453C395.324 112.259 413.609 111.258 430.996 115.58L435.516 116.702C447.569 119.623 458.862 125.077 468.644 132.702C476.298 138.736 483.184 146.376 483.797 154.594C483.8 154.611 483.805 154.628 483.812 154.645C485.932 163.937 486.981 212.212 486.981 212.212H468.281L471.239 277.279L471 276.808C471 276.808 363.144 297.219 363.144 286.724V219.556L360.933 195.236L333.759 189.121Z" fill="#5E9641"/>
<path id="Vector_14" d="M411.519 144C416.019 169.124 398.02 180.936 388.458 195.56C371.584 221.809 396.708 249.183 424.644 246.745C454.268 244.308 464.58 219.934 453.893 193.31C445.268 171.936 426.331 150.562 411.519 144Z" fill="#94C83D"/>
<path id="Vector_15" d="M411.519 144C412.082 147.562 412.269 150.75 412.082 153.75C416.582 161.437 423.331 174.936 426.706 190.31C426.706 190.873 426.894 191.248 427.081 191.81C428.581 199.685 429.144 207.935 428.206 216.184L401.02 181.311C400.832 181.123 400.645 180.748 400.27 180.561C398.208 182.998 396.145 185.436 394.27 187.873L425.581 227.996C423.706 233.621 420.894 238.871 416.957 244.12C416.394 244.87 416.019 245.808 416.019 246.558C418.832 246.933 421.832 247.12 424.831 246.745C425.394 246.745 426.144 246.558 426.706 246.558C438.706 228.746 439.831 209.06 436.643 191.623L447.518 180.186C445.83 177.373 444.143 174.749 442.268 172.124C442.081 172.311 441.706 172.499 441.518 172.686L434.018 180.561C430.269 167.249 424.456 156.187 420.332 149.062C417.332 147 414.332 145.312 411.519 144Z" fill="#5E9641"/>
<g id="head">
<path id="Ellipse12" d="M434.432 106.482C450.939 106.482 464.321 93.0998 464.321 76.5926C464.321 60.0853 450.939 46.7036 434.432 46.7036C417.925 46.7036 404.543 60.0853 404.543 76.5926C404.543 93.0998 417.925 106.482 434.432 106.482Z" fill="#FEB8B8"/>
<path id="Path120" d="M438.909 63.1886L462.117 64.1186C465.037 64.1096 468.225 64.0066 470.449 62.1186C473.799 59.2696 473.238 53.8936 471.444 49.8776C466.444 38.6956 455.291 34.6896 443.044 35.0186C430.797 35.3476 417.964 39.4986 411.369 49.8186C404.774 60.1386 402.992 73.1706 405.476 85.1626C408.348 79.0648 412.769 73.8269 418.297 69.9718C423.826 66.1167 430.269 63.7792 436.984 63.1926L438.909 63.1886Z" fill="#2F2E41"/>
</g>
</g>
</g>
<defs>
<clipPath id="clip0">
<rect width="930" height="550" fill="white"/>
</clipPath>
</defs>
</svg>
