<svg height="512pt" viewBox="-80 0 512 512" width="512pt" xmlns="http://www.w3.org/2000/svg"><path d="m136.757812 474.5c0 4.140625-3.359374 7.5-7.5 7.5-4.144531 0-7.5-3.359375-7.5-7.5s3.355469-7.5 7.5-7.5c4.140626 0 7.5 3.359375 7.5 7.5zm0 0"/><path d="m229.257812 474.5c0 4.140625-3.359374 7.5-7.5 7.5-4.144531 0-7.5-3.359375-7.5-7.5s3.355469-7.5 7.5-7.5c4.140626 0 7.5 3.359375 7.5 7.5zm0 0"/><path d="m334.007812 53.179688v-15.679688c0-20.679688-16.820312-37.5-37.5-37.5h-240c-20.679687 0-37.5 16.820312-37.5 37.5v15.269531c-10.753906 1.683594-19.007812 11.011719-19.007812 22.230469v22.5c0 12.40625 10.09375 22.5 22.5 22.5h2.925781l11.496094 172.808594c.816406 10.152344 8.457031 18.378906 18.152344 20.28125l10.117187 95.714844c.453125 5.605468 2.933594 10.722656 6.945313 14.511718l3.054687 37.988282c.933594 11.605468 10.785156 20.695312 22.425782 20.695312h1.640624c4.140626 0 7.5-3.355469 7.5-7.5 0-12.40625 10.09375-22.5 22.5-22.5 12.402344 0 22.5 10.09375 22.5 22.5 0 5.988281-2.351562 11.628906-6.601562 15.898438-4.261719 4.25-9.910156 6.601562-15.898438 6.601562-4.320312 0-8.523437-1.238281-12.144531-3.570312-1.21875-.78125-2.617187-1.199219-4.058593-1.199219-2.570313 0-4.929688 1.289062-6.308594 3.441406-1.09375 1.6875-1.449219 3.6875-1.03125 5.648437.421875 1.960938 1.582031 3.628907 3.269531 4.71875 6.039063 3.898438 13.050781 5.960938 20.261719 5.960938h.011718c10.007813-.011719 19.429688-3.910156 26.507813-10.988281 5.277344-5.285157 8.785156-11.859375 10.234375-19.011719h25.757812c4.140626 0 7.5-3.355469 7.5-7.5 0-12.40625 10.09375-22.5 22.5-22.5 12.402344 0 22.5 10.09375 22.5 22.5 0 5.988281-2.351562 11.628906-6.601562 15.898438-4.269531 4.25-9.910156 6.601562-15.898438 6.601562-4.320312 0-8.523437-1.238281-12.144531-3.570312-1.21875-.78125-2.617187-1.199219-4.058593-1.199219-2.570313 0-4.929688 1.289062-6.308594 3.441406-1.09375 1.6875-1.449219 3.6875-1.03125 5.648437.421875 1.960938 1.582031 3.640626 3.269531 4.71875 6.039063 3.898438 13.050781 5.960938 20.25 5.960938h.023437c10.007813-.011719 19.417969-3.910156 26.507813-10.988281 5.4375-5.445313 8.988281-12.257813 10.355469-19.660157 9.234375-2.242187 16.410156-10.234374 17.199218-20.046874l3.058594-37.988282c4.007813-3.789062 6.488282-8.90625 6.941406-14.511718l10.117188-95.714844c9.695312-1.902344 17.335938-10.128906 18.152344-20.28125l11.496094-172.808594h2.925781c12.40625 0 22.5-10.09375 22.5-22.5v-22.5c0-10.511719-7.246094-19.363281-17.003907-21.820312zm-34.867187 238.425781c-.3125 3.867187-3.597656 6.898437-7.476563 6.898437h-66.15625c-4.144531 0-7.5 3.355469-7.5 7.5 0 4.140625 3.355469 7.5 7.5 7.5h55.351563l-9.988281 94.097656c-.1875 2.300782-1.40625 4.355469-3.34375 5.640626-.003906.003906-.011719.007812-.015625.011718-1.234375.8125-2.65625 1.246094-4.117188 1.246094h-72.890625c-4.144531 0-7.5 3.355469-7.5 7.5 0 4.140625 3.355469 7.5 7.5 7.5h72.828125l-2.464843 30.601562c-.167969 2.097657-1.210938 3.949219-2.75 5.207032-4.109376-16.25-18.855469-28.308594-36.359376-28.308594-18.109374 0-33.265624 12.902344-36.75 30h-19.003906c-3.484375-17.097656-18.640625-30-36.746094-30-17.507812 0-32.253906 12.058594-36.363281 28.308594-1.539062-1.257813-2.582031-3.109375-2.75-5.207032l-2.464843-30.601562h72.828124c4.144532 0 7.5-3.355469 7.5-7.5s-3.355468-7.5-7.5-7.5h-72.886718c-1.464844 0-2.894532-.433594-4.128906-1.25-1.941407-1.285156-3.164063-3.347656-3.347657-5.648438l-9.988281-94.097656h55.351562c4.140626 0 7.5-3.359375 7.5-7.5 0-4.144531-3.359374-7.5-7.5-7.5h-66.15625c-3.882812 0-7.167968-3.03125-7.480468-6.898437l-11.394532-171.605469h270.058594zm36.871094-194.105469c0 4.136719-3.363281 7.5-7.5 7.5h-306.011719c-4.136719 0-7.5-3.363281-7.5-7.5v-22.5c0-4.136719 3.363281-7.5 7.5-7.5h274.511719c4.140625 0 7.5-3.355469 7.5-7.5s-3.359375-7.5-7.5-7.5h-263.003907v-15c0-12.40625 10.09375-22.5 22.5-22.5h240c12.40625 0 22.5 10.09375 22.5 22.5v22.5c0 4.144531 3.355469 7.5 7.5 7.5h2.003907c4.136719 0 7.5 3.363281 7.5 7.5zm0 0"/><path d="m105.433594 261.476562c3.949218-1.25 6.140625-5.460937 4.894531-9.410156-4.867187-15.425781 5.855469-31.042968 21.511719-32.5.171875 16.640625 9.695312 31.074219 23.554687 38.296875-6.042969 9.585938-17.761719 13.988281-28.746093 10.519531-3.953126-1.25-8.164063.945313-9.410157 4.894532-1.246093 3.949218.945313 8.164062 4.894531 9.410156 18.851563 5.949219 39.066407-2.644531 47.902344-20.253906 3.625.453125 7.050782.488281 10.964844-.003906 8.734375 17.488281 28.90625 26.246093 47.882812 20.257812 3.949219-1.246094 6.140626-5.460938 4.894532-9.410156-1.246094-3.949219-5.460938-6.144532-9.410156-4.894532-10.988282 3.472657-22.707032-.9375-28.746094-10.519531 13.859375-7.222656 23.382812-21.65625 23.554687-38.300781 15.664063 1.460938 26.378907 17.085938 21.511719 32.5-1.246094 3.953125.945312 8.164062 4.894531 9.410156 3.945313 1.25 8.164063-.945312 9.410157-4.894531 8.242187-26.113281-11.4375-52.25-38.339844-52.125-1.613282-4.511719-3.953125-8.683594-6.871094-12.378906 11.796875-19.449219 5.058594-45.386719-15.8125-56.242188-3.671875-1.910156-8.203125-.484375-10.113281 3.191407-1.910157 3.675781-.480469 8.203124 3.191406 10.113281 12.082031 6.285156 16.730469 20.761719 11.214844 32.699219-13.957031-8.550782-31.550781-8.550782-45.503907 0-5.523437-11.949219-.859374-26.417969 11.210938-32.699219 3.675781-1.910157 5.105469-6.4375 3.191406-10.113281-1.910156-3.675782-6.4375-5.101563-10.113281-3.191407-20.878906 10.859375-27.601563 36.804688-15.808594 56.246094-2.921875 3.691406-5.261719 7.863281-6.875 12.378906-.050781 0-.101562-.003906-.15625-.003906-26.863281 0-46.402343 26.085937-38.183593 52.125 1.246093 3.953125 5.460937 6.144531 9.410156 4.898437zm98.476562-38.460937c-1.109375 8.121094-5.628906 15.167969-12.070312 19.644531.617187-8.433594 5.332031-15.585937 12.070312-19.644531zm-16.128906-29.820313c-7.617188 4.300782-16.925781 4.304688-24.550781 0 7.632812-3.628906 16.671875-3.746093 24.550781 0zm-36.265625 10.226563c14.210937 10.664063 33.746094 10.679687 47.980469 0 .828125 1.261719 1.558594 2.589844 2.179687 3.980469-15.703125 6.402344-26.210937 22.402344-24.765625 40.347656-1.007812.050781-1.835937.046875-2.792968 0 1.460937-18.355469-9.414063-34.082031-24.78125-40.347656.625-1.390625 1.351562-2.71875 2.179687-3.980469zm7.65625 39.238281c-6.4375-4.476562-10.960937-11.523437-12.070313-19.644531 6.738282 4.058594 11.453126 11.210937 12.070313 19.644531zm0 0"/></svg>