<svg id="Layer_1" enable-background="new 0 0 512 512" height="512" viewBox="0 0 512 512" width="512" xmlns="http://www.w3.org/2000/svg"><g id="XMLID_2418_"><g id="XMLID_595_"><path id="XMLID_611_" d="m501.999 140.768h-56.873c-5.523 0-10 4.478-10 10v8h-34v-8c0-5.522-4.477-10-10-10h-12.127c-5.523 0-10 4.478-10 10s4.477 10 10 10h2.127v8c0 5.522 4.477 10 10 10h54c5.523 0 10-4.478 10-10v-8h36.873v33.992l-108.043 62.586v-33.536c0-3.557-1.889-6.846-4.961-8.638l-35.048-20.444c-.52-5.034-4.774-8.961-9.947-8.961-5.523 0-10 4.478-10 10v4.736c0 3.557 1.889 6.846 4.961 8.638l34.995 20.413v194.103c0 1.717.442 3.404 1.283 4.9l44.043 78.342c1.771 3.15 5.103 5.1 8.717 5.1s6.946-1.949 8.717-5.1l44.043-78.342c.841-1.496 1.283-3.184 1.283-4.9v-194.102l34.996-20.413c3.072-1.792 4.961-5.081 4.961-8.638v-49.736c0-5.522-4.477-10-10-10zm-49.957 178.031-68.086 39.31v-27.288l68.086-39.31zm-68.087 62.404 68.086-39.31v27.288l-68.086 39.31zm68.087-140.072v27.287l-68.086 39.31v-27.288zm-34.043 240.463-29.568-52.594 63.611-36.726v28.765z"/><path id="XMLID_617_" d="m303.132 228.517c-.463-1.653-1.344-3.159-2.558-4.373l-137.251-137.251 10.312-39.18c.905-3.439-.085-7.101-2.6-9.616l-35.169-35.169c-3.905-3.904-10.237-3.904-14.143 0l-40.214 40.215c-3.905 3.905-3.905 10.236 0 14.142l5.657 5.658-24.042 24.042-5.657-5.657c-3.905-3.904-10.237-3.904-14.142 0l-40.395 40.394c-1.875 1.876-2.929 4.419-2.929 7.071s1.054 5.195 2.929 7.071l35.169 35.169c2.516 2.515 6.176 3.506 9.617 2.6l39.179-10.312 137.251 137.251c1.214 1.214 2.72 2.095 4.373 2.558l86.54 24.253c.891.25 1.798.371 2.698.371 2.616 0 5.17-1.027 7.072-2.929 2.555-2.556 3.533-6.29 2.558-9.77zm-75.569 47.189-19.296-19.296 20.348-75.94 19.296 19.296zm-54.92-54.921 20.348-75.94 19.295 19.295-20.348 75.94zm4.018-92.269-20.348 75.939-19.296-19.296 20.349-75.939zm-89.302 14.002-39.18 10.312-24.036-24.036 26.253-26.253 5.657 5.657c3.905 3.904 10.237 3.904 14.142 0l38.183-38.184c3.905-3.905 3.906-10.237 0-14.142l-5.657-5.658 26.073-26.072 24.037 24.036-32.143 120.652-23.713-23.713c-2.515-2.514-6.175-3.504-9.616-2.599zm157.872 144.525 19.01-70.948 20.34 20.339 18.746 66.891z"/><path id="XMLID_622_" d="m334 160.769c2.63 0 5.21-1.069 7.07-2.93s2.93-4.44 2.93-7.07-1.07-5.21-2.93-7.069c-1.86-1.86-4.44-2.931-7.07-2.931s-5.21 1.07-7.07 2.931c-1.86 1.859-2.93 4.439-2.93 7.069s1.07 5.21 2.93 7.07c1.86 1.861 4.439 2.93 7.07 2.93z"/></g></g></svg>