<?xml version="1.0"?>
<svg xmlns="http://www.w3.org/2000/svg" id="Line_cutting_stroke_Ex" data-name="Line cutting stroke Ex" width="512" height="512" viewBox="0 0 512 512"><g><path d="M408,448V280h16a8,8,0,0,0,8-8V224h32a8,8,0,0,0,7.6357-10.3862L436.0215,99.6484a28.0318,28.0318,0,0,0-7.0047-11.5628A17.9982,17.9982,0,0,0,414,80H376V66.8062l14.2471-17.8086a7.9977,7.9977,0,0,0,.681-.9976H432v8a8,8,0,0,0,8,8h32a24,24,0,0,0,0-48H440a8,8,0,0,0-8,8v8H389.2958a27.9962,27.9962,0,0,0-50.5916,0H247.8893A18.0257,18.0257,0,0,0,230,16H114A18.0257,18.0257,0,0,0,96.1107,32H80V24a8,8,0,0,0-8-8H40a24,24,0,0,0,0,48H72a8,8,0,0,0,8-8V48H96V64h16V34a2.002,2.002,0,0,1,2-2H230a2.002,2.002,0,0,1,2,2V144H112V80H96V216a8,8,0,0,0,8,8h24v16.2853A28.0429,28.0429,0,0,0,104,268V448a24,24,0,1,0,24,24v-8H384v8a24,24,0,1,0,24-24ZM448,32h24a8,8,0,0,1,0,16H448ZM64,48H40a8,8,0,0,1,0-16H64ZM390.7173,96a21.9692,21.9692,0,0,1-15.3819,13.92L368,111.7539l-7.3354-1.834A21.9692,21.9692,0,0,1,345.2827,96ZM112,160H232v16H112Zm0,32H232v16H112Zm128,32a8,8,0,0,0,8-8V48H352V44a12.0008,12.0008,0,0,1,23.7417-2.4834L361.7529,59.0024A8.0009,8.0009,0,0,0,360,64V80H322a17.9982,17.9982,0,0,0-15.0168,8.0856,28.0318,28.0318,0,0,0-7.0047,11.5628L264.3643,213.6138A8,8,0,0,0,272,224h32v16H144V224ZM132,256H304v16a8,8,0,0,0,8,8h24V264H320V217.1741l23.6626-78.8753-15.3252-4.5976L306.0479,208H282.8813L315.25,104.4209A11.9486,11.9486,0,0,1,326.7036,96h2.0222a37.9434,37.9434,0,0,0,28.0579,29.4424l9.2764,2.3188a7.9988,7.9988,0,0,0,3.88,0l9.2764-2.3188A37.9434,37.9434,0,0,0,407.2742,96h2.0222a11.9486,11.9486,0,0,1,11.4536,8.4209L453.1187,208H429.9521l-22.2895-74.2988-15.3252,4.5976L416,217.1741V264H352v16h40v16H244.96A17.9969,17.9969,0,0,0,230,288H154a17.9969,17.9969,0,0,0-14.96,8H120V268A12.0137,12.0137,0,0,1,132,256Zm20,144h80v16H152Zm-32-88h16V424a8,8,0,0,0,8,8h96a8,8,0,0,0,8-8V368H232v16H152V306a2.002,2.002,0,0,1,2-2h76a2.002,2.002,0,0,1,2,2v46h16V312H392V448H359.8894A18.1234,18.1234,0,0,0,360,446V384h8V368H296v16h8v9.4414L286.5088,396.94A28.0752,28.0752,0,0,0,264,424.396V446a18.1234,18.1234,0,0,0,.1106,2H120Zm200,88V384h24v40H280.0063a12.035,12.035,0,0,1,9.64-11.3706l23.9223-4.7847A8,8,0,0,0,320,400ZM112,472a8,8,0,1,1-8-8h8Zm170-24a2.002,2.002,0,0,1-2-2v-6h64v6a2.002,2.002,0,0,1-2,2Zm126,32a8.0092,8.0092,0,0,1-8-8v-8h8a8,8,0,0,1,0,16Z"/><rect x="376" y="232" width="24" height="16"/><rect x="168" y="320" width="16" height="48"/><path d="M88,244a8.0008,8.0008,0,0,0-4.1611-7.019l-16.045-8.7749-8.7749-16.045a8,8,0,0,0-14.038,0l-8.7749,16.045-16.045,8.7749a8,8,0,0,0,0,14.038l16.045,8.7749,8.7749,16.045a8,8,0,0,0,14.038,0l8.7749-16.045,16.045-8.7749A8.0008,8.0008,0,0,0,88,244Zm-29.94,2.88a8.0035,8.0035,0,0,0-3.18,3.18L52,255.3276l-2.88-5.2671a8.0035,8.0035,0,0,0-3.18-3.18L40.6724,244l5.2671-2.88a8.0035,8.0035,0,0,0,3.18-3.18L52,232.6724l2.88,5.2671a8.0035,8.0035,0,0,0,3.18,3.18L63.3276,244Z"/><path d="M491.8389,380.981l-16.045-8.7749-8.7749-16.045a8,8,0,0,0-14.038,0l-8.7749,16.045-16.045,8.7749a8,8,0,0,0,0,14.038l16.045,8.7749,8.7749,16.045a8,8,0,0,0,14.038,0l8.7749-16.045,16.045-8.7749a8,8,0,0,0,0-14.038ZM466.0605,390.88a8.0035,8.0035,0,0,0-3.18,3.18L460,399.3276l-2.88-5.2671a8.0035,8.0035,0,0,0-3.18-3.18L448.6724,388l5.2671-2.88a8.0035,8.0035,0,0,0,3.18-3.18l2.88-5.2671,2.88,5.2671a8.0035,8.0035,0,0,0,3.18,3.18l5.2671,2.88Z"/></g></svg>
